<svg width="24" height="24" viewBox="0 0 24 24" fill="none" xmlns="http://www.w3.org/2000/svg">
<path opacity="0.1" d="M5.97406 17.7855L8.91711 14.8425C8.17617 14.0626 7.76921 13.0241 7.78298 11.9485C7.79675 10.8729 8.23017 9.84516 8.99083 9.0845C9.75148 8.32385 10.7792 7.89043 11.8548 7.87665C12.9305 7.86288 13.9689 8.26985 14.7488 9.01078L17.7423 6.01687C16.0968 4.91297 14.1827 4.36047 12.0001 4.35938C7.49539 4.35938 4.13445 6.70547 1.91726 11.3977C1.82814 11.5864 1.78192 11.7925 1.78192 12.0012C1.78192 12.2099 1.82814 12.416 1.91726 12.6047C2.99961 14.8845 4.35187 16.6115 5.97406 17.7855Z" fill="#1890FF"/>
<path opacity="0.1" d="M22.0828 11.3953C21.2587 9.65953 20.2783 8.24391 19.1414 7.14844L15.7612 10.5298C16.0444 11.2736 16.1064 12.0835 15.9398 12.8617C15.7732 13.64 15.3852 14.3535 14.8224 14.9163C14.2595 15.4791 13.546 15.8671 12.7677 16.0337C11.9895 16.2002 11.1796 16.1382 10.4358 15.855L7.57031 18.7207C8.89844 19.334 10.375 19.6406 12 19.6406C16.5047 19.6406 19.8656 17.2945 22.0828 12.6023C22.1719 12.4136 22.2182 12.2075 22.2182 11.9988C22.2182 11.7901 22.1719 11.584 22.0828 11.3953Z" fill="#1890FF"/>
<path d="M22.0828 11.3953C21.2589 9.65953 20.2784 8.24391 19.1414 7.14844L17.9489 8.34094C18.9213 9.27023 19.7684 10.4859 20.5008 12C18.5508 16.0359 15.7828 17.9531 12 17.9531C10.8645 17.9531 9.81867 17.7783 8.86242 17.4286L7.57031 18.7207C8.89844 19.334 10.375 19.6406 12 19.6406C16.5047 19.6406 19.8656 17.2945 22.0828 12.6023C22.1719 12.4136 22.2182 12.2075 22.2182 11.9988C22.2182 11.7901 22.1719 11.584 22.0828 11.3953Z" fill="#1890FF"/>
<path d="M20.593 3.88074L19.5938 2.88043C19.5764 2.863 19.5557 2.84917 19.533 2.83973C19.5102 2.8303 19.4858 2.82544 19.4612 2.82544C19.4365 2.82544 19.4121 2.8303 19.3894 2.83973C19.3666 2.84917 19.3459 2.863 19.3285 2.88043L16.7652 5.44262C15.3519 4.72074 13.7635 4.35981 12.0001 4.35981C7.49539 4.35981 4.13445 6.7059 1.91726 11.3981C1.82814 11.5868 1.78192 11.7929 1.78192 12.0016C1.78192 12.2103 1.82814 12.4164 1.91726 12.6051C2.80304 14.4707 3.86945 15.9661 5.11648 17.0913L2.63632 19.5707C2.60119 19.6059 2.58145 19.6536 2.58145 19.7033C2.58145 19.753 2.60119 19.8007 2.63632 19.8358L3.63687 20.8364C3.67203 20.8715 3.7197 20.8912 3.76941 20.8912C3.81912 20.8912 3.86679 20.8715 3.90195 20.8364L20.593 4.14606C20.6104 4.12864 20.6242 4.10796 20.6337 4.0852C20.6431 4.06244 20.648 4.03804 20.648 4.0134C20.648 3.98876 20.6431 3.96436 20.6337 3.9416C20.6242 3.91884 20.6104 3.89816 20.593 3.88074ZM3.49929 12.0004C5.45164 7.96449 8.21961 6.04731 12.0001 6.04731C13.2784 6.04731 14.4406 6.26668 15.4951 6.7127L13.8474 8.36035C13.0671 7.94402 12.1736 7.7895 11.2988 7.9196C10.424 8.0497 9.61419 8.45752 8.98881 9.08291C8.36342 9.7083 7.95559 10.5181 7.82549 11.3929C7.69539 12.2678 7.84991 13.1612 8.26625 13.9415L6.31109 15.8967C5.22898 14.9416 4.29617 13.6476 3.49929 12.0004ZM9.28132 12.0004C9.28173 11.5871 9.37963 11.1798 9.56705 10.8114C9.75448 10.4431 10.0261 10.1242 10.36 9.88053C10.6938 9.63691 11.0804 9.47547 11.4884 9.40933C11.8964 9.34319 12.3142 9.37421 12.7079 9.49988L9.40578 12.802C9.32301 12.5429 9.28103 12.2725 9.28132 12.0004Z" fill="#1890FF"/>
<path d="M11.9065 14.6253C11.8255 14.6253 11.7455 14.6215 11.6663 14.6143L10.4283 15.8522C11.1729 16.1374 11.9842 16.2008 12.764 16.0347C13.5438 15.8686 14.2589 15.4802 14.8227 14.9164C15.3864 14.3526 15.7749 13.6376 15.9409 12.8578C16.107 12.0779 16.0436 11.2667 15.7585 10.5221L14.5205 11.7601C14.5278 11.8393 14.5315 11.9192 14.5315 12.0003C14.5317 12.3451 14.464 12.6865 14.3321 13.0051C14.2002 13.3236 14.0069 13.6131 13.7631 13.8569C13.5193 14.1006 13.2299 14.294 12.9113 14.4258C12.5927 14.5577 12.2513 14.6255 11.9065 14.6253Z" fill="#1890FF"/>
</svg>
