<svg width="24" height="24" viewBox="0 0 24 24" fill="none" xmlns="http://www.w3.org/2000/svg">
<path d="M12.9258 11.4961H12.2109C12.1031 11.4961 12.0141 11.5828 12.0141 11.693V16.875C12.0141 16.9828 12.1008 17.0719 12.2109 17.0719H12.9258C13.0336 17.0719 13.1227 16.9852 13.1227 16.875V11.693C13.1203 11.5852 13.0336 11.4961 12.9258 11.4961ZM11.1867 14.0625H9.12187C9.01406 14.0625 8.925 14.1492 8.925 14.2594V14.8172C8.925 14.925 9.01172 15.0141 9.12187 15.0141H10.2375V15.0305C10.2234 15.7312 9.69844 16.1977 8.91328 16.1977C7.99453 16.1977 7.42266 15.4781 7.42266 14.2898C7.42266 13.1156 7.98281 12.4008 8.88281 12.4008C9.5414 12.4008 9.99609 12.7172 10.1812 13.2984L10.2023 13.3641H11.3555L11.3391 13.2562C11.1539 12.0914 10.1883 11.3438 8.88281 11.3438C7.27031 11.3438 6.23438 12.5016 6.23438 14.2945C6.23438 16.1109 7.25859 17.25 8.89687 17.25C10.4062 17.25 11.3812 16.3055 11.3812 14.8383V14.257C11.3812 14.1492 11.2945 14.0625 11.1867 14.0625Z" fill="black" fill-opacity="0.85"/>
<path d="M20.0297 6.76406L14.9859 1.72031C14.8453 1.57969 14.6555 1.5 14.4562 1.5H4.5C4.08516 1.5 3.75 1.83516 3.75 2.25V21.75C3.75 22.1648 4.08516 22.5 4.5 22.5H19.5C19.9148 22.5 20.25 22.1648 20.25 21.75V7.29609C20.25 7.09687 20.1703 6.90469 20.0297 6.76406ZM14.1094 3.22969L18.5203 7.64062H14.1094V3.22969ZM18.5625 20.8125H5.4375V3.1875H12.5156V8.25C12.5156 8.79375 12.9563 9.23438 13.5 9.23438H18.5625V20.8125Z" fill="black" fill-opacity="0.85"/>
<path d="M14.2547 17.0578H15.0117C15.1195 17.0578 15.2086 16.9711 15.2086 16.8609V14.8734H17.2664C17.3742 14.8734 17.4633 14.7867 17.4633 14.6766V14.0789C17.4633 13.9711 17.3766 13.882 17.2664 13.882H15.2086V12.5016H17.4773C17.5852 12.5016 17.6742 12.4148 17.6742 12.3047V11.6766C17.6742 11.5687 17.5875 11.4797 17.4773 11.4797H14.2547C14.1469 11.4797 14.0578 11.5664 14.0578 11.6766V16.8586C14.0578 16.9711 14.1469 17.0578 14.2547 17.0578Z" fill="black" fill-opacity="0.85"/>
</svg>
