<svg width="24" height="24" viewBox="0 0 24 24" fill="none" xmlns="http://www.w3.org/2000/svg">
<path d="M6.79783 5.53925L7.82673 4.51035C7.85152 4.48544 7.86881 4.45408 7.87666 4.41983C7.8845 4.38558 7.88257 4.34982 7.8711 4.31661C7.85962 4.2834 7.83905 4.25408 7.81174 4.23198C7.78442 4.20988 7.75145 4.19589 7.71658 4.1916L3.96189 3.74863C3.84236 3.73457 3.73923 3.83535 3.7533 3.95722L4.19627 7.71191C4.21502 7.8666 4.40486 7.93222 4.51502 7.82207L5.53923 6.79785L8.67283 9.9291C8.74548 10.0018 8.86502 10.0018 8.93767 9.9291L9.93142 8.93769C10.0041 8.86503 10.0041 8.7455 9.93142 8.67285L6.79783 5.53925ZM15.0642 9.9291C15.1369 10.0018 15.2564 10.0018 15.3291 9.9291L18.4627 6.79785L19.4869 7.82207C19.5118 7.84685 19.5432 7.86415 19.5774 7.87199C19.6117 7.87983 19.6474 7.8779 19.6806 7.86643C19.7138 7.85495 19.7432 7.83438 19.7653 7.80707C19.7874 7.77975 19.8014 7.74678 19.8056 7.71191L20.2486 3.95957C20.2627 3.84003 20.1619 3.73691 20.04 3.75097L16.2853 4.19394C16.1306 4.21269 16.065 4.40253 16.1752 4.51269L17.2041 5.5416L14.0705 8.6705C14.0356 8.70574 14.016 8.75333 14.016 8.80293C14.016 8.85252 14.0356 8.90011 14.0705 8.93535L15.0642 9.9291ZM19.8056 16.2853C19.7869 16.1307 19.597 16.065 19.4869 16.1752L18.4627 17.1994L15.3291 14.0682C15.2938 14.0333 15.2462 14.0137 15.1967 14.0137C15.1471 14.0137 15.0995 14.0333 15.0642 14.0682L14.0705 15.0596C14.0356 15.0948 14.016 15.1424 14.016 15.192C14.016 15.2416 14.0356 15.2892 14.0705 15.3244L17.2041 18.458L16.1752 19.4869C16.1504 19.5118 16.1331 19.5432 16.1252 19.5774C16.1174 19.6117 16.1193 19.6474 16.1308 19.6806C16.1423 19.7139 16.1629 19.7432 16.1902 19.7653C16.2175 19.7874 16.2505 19.8014 16.2853 19.8057L20.04 20.2486C20.1595 20.2627 20.2627 20.1619 20.2486 20.04L19.8056 16.2853ZM8.93767 14.0682C8.90243 14.0333 8.85484 14.0137 8.80525 14.0137C8.75566 14.0137 8.70807 14.0333 8.67283 14.0682L5.53923 17.1994L4.51502 16.1752C4.49011 16.1504 4.45875 16.1331 4.4245 16.1253C4.39025 16.1174 4.35449 16.1194 4.32128 16.1308C4.28807 16.1423 4.25875 16.1629 4.23665 16.1902C4.21455 16.2175 4.20056 16.2505 4.19627 16.2853L3.7533 20.0377C3.73923 20.1572 3.84002 20.2603 3.96189 20.2463L7.71658 19.8033C7.87127 19.7846 7.93689 19.5947 7.82673 19.4846L6.79783 18.458L9.93142 15.3268C10.0041 15.2541 10.0041 15.1346 9.93142 15.0619L8.93767 14.0682Z" fill="black" fill-opacity="0.85"/>
</svg>
